<svg xmlns="http://www.w3.org/2000/svg" xmlns:ns1="http://www.iki.fi/pav/software/textext/" xmlns:svg="http://www.w3.org/2000/svg" xmlns:xlink="http://www.w3.org/1999/xlink" id="svg2" width="851.582" height="675.272" version="1.1" viewBox="0 0 798.358 633.067"><defs id="defs4"><marker id="marker36442" orient="auto" refX="0" refY="0" style="overflow:visible"><path id="path36444" d="M 8.7185878,4.0337352 -2.2072895,0.01601326 8.7185884,-4.0017078 c -1.7454984,2.3720609 -1.7354408,5.6174519 -6e-7,8.035443 z" transform="matrix(-1.1,0,0,-1.1,-1.1,0)" style="fill:#000;fill-opacity:1;fill-rule:evenodd;stroke:#000;stroke-width:.625;stroke-linejoin:round;stroke-opacity:1"/></marker><marker style="overflow:visible" id="marker34762" orient="auto" refX="0" refY="0"><path style="fill:#000;fill-opacity:1;fill-rule:evenodd;stroke:#000;stroke-width:.625;stroke-linejoin:round;stroke-opacity:1" id="path34764" d="M 8.7185878,4.0337352 -2.2072895,0.01601326 8.7185884,-4.0017078 c -1.7454984,2.3720609 -1.7354408,5.6174519 -6e-7,8.035443 z" transform="matrix(-1.1,0,0,-1.1,-1.1,0)"/></marker><marker style="overflow:visible" id="marker34218" orient="auto" refX="0" refY="0"><path style="fill:#000;fill-opacity:1;fill-rule:evenodd;stroke:#000;stroke-width:.625;stroke-linejoin:round;stroke-opacity:1" id="path34220" d="M 8.7185878,4.0337352 -2.2072895,0.01601326 8.7185884,-4.0017078 c -1.7454984,2.3720609 -1.7354408,5.6174519 -6e-7,8.035443 z" transform="matrix(-1.1,0,0,-1.1,-1.1,0)"/></marker><marker style="overflow:visible" id="marker33148" orient="auto" refX="0" refY="0"><path style="fill:#000;fill-opacity:1;fill-rule:evenodd;stroke:#000;stroke-width:.625;stroke-linejoin:round;stroke-opacity:1" id="path33150" d="M 8.7185878,4.0337352 -2.2072895,0.01601326 8.7185884,-4.0017078 c -1.7454984,2.3720609 -1.7354408,5.6174519 -6e-7,8.035443 z" transform="matrix(-1.1,0,0,-1.1,-1.1,0)"/></marker><marker style="overflow:visible" id="marker32102" orient="auto" refX="0" refY="0"><path style="fill:#000;fill-opacity:1;fill-rule:evenodd;stroke:#000;stroke-width:.625;stroke-linejoin:round;stroke-opacity:1" id="path32104" d="M 8.7185878,4.0337352 -2.2072895,0.01601326 8.7185884,-4.0017078 c -1.7454984,2.3720609 -1.7354408,5.6174519 -6e-7,8.035443 z" transform="matrix(-1.1,0,0,-1.1,-1.1,0)"/></marker><marker style="overflow:visible" id="marker30568" orient="auto" refX="0" refY="0"><path style="fill:#000;fill-opacity:1;fill-rule:evenodd;stroke:#000;stroke-width:.625;stroke-linejoin:round;stroke-opacity:1" id="path30570" d="M 8.7185878,4.0337352 -2.2072895,0.01601326 8.7185884,-4.0017078 c -1.7454984,2.3720609 -1.7354408,5.6174519 -6e-7,8.035443 z" transform="matrix(-1.1,0,0,-1.1,-1.1,0)"/></marker><marker style="overflow:visible" id="marker29572" orient="auto" refX="0" refY="0"><path style="fill:#000;fill-opacity:1;fill-rule:evenodd;stroke:#000;stroke-width:.625;stroke-linejoin:round;stroke-opacity:1" id="path29574" d="M 8.7185878,4.0337352 -2.2072895,0.01601326 8.7185884,-4.0017078 c -1.7454984,2.3720609 -1.7354408,5.6174519 -6e-7,8.035443 z" transform="matrix(-1.1,0,0,-1.1,-1.1,0)"/></marker><marker id="Arrow2Lend" orient="auto" refX="0" refY="0" style="overflow:visible"><path id="path4421" d="M 8.7185878,4.0337352 -2.2072895,0.01601326 8.7185884,-4.0017078 c -1.7454984,2.3720609 -1.7354408,5.6174519 -6e-7,8.035443 z" transform="matrix(-1.1,0,0,-1.1,-1.1,0)" style="fill:#000;fill-opacity:1;fill-rule:evenodd;stroke:#000;stroke-width:.625;stroke-linejoin:round;stroke-opacity:1"/></marker><marker style="overflow:visible" id="marker33148-3" orient="auto" refX="0" refY="0"><path style="fill:#000;fill-opacity:1;fill-rule:evenodd;stroke:#000;stroke-width:.625;stroke-linejoin:round;stroke-opacity:1" id="path33150-6" d="M 8.7185878,4.0337352 -2.2072895,0.01601326 8.7185884,-4.0017078 c -1.7454984,2.3720609 -1.7354408,5.6174519 -6e-7,8.035443 z" transform="matrix(-1.1,0,0,-1.1,-1.1,0)"/></marker><linearGradient id="linearGradient13294"><stop id="stop13290" offset="0" style="stop-color:#fff;stop-opacity:1"/><stop style="stop-color:#fff;stop-opacity:.99109793" id="stop13298" offset=".5"/><stop id="stop13292" offset="1" style="stop-color:#fff;stop-opacity:0"/></linearGradient><radialGradient id="radialGradient12779" cx="190.377" cy="52.611" r="49.963" fx="190.377" fy="52.611" gradientTransform="matrix(-11.884291,0.04455588,-0.00448118,-1.1934972,2724.9647,677.68832)" gradientUnits="userSpaceOnUse" xlink:href="#linearGradient13294"/><marker style="overflow:visible" id="marker33148-3-3" orient="auto" refX="0" refY="0"><path style="fill:#000;fill-opacity:1;fill-rule:evenodd;stroke:#000;stroke-width:.625;stroke-linejoin:round;stroke-opacity:1" id="path33150-6-6" d="M 8.7185878,4.0337352 -2.2072895,0.01601326 8.7185884,-4.0017078 c -1.7454984,2.3720609 -1.7354408,5.6174519 -6e-7,8.035443 z" transform="matrix(-1.1,0,0,-1.1,-1.1,0)"/></marker><marker style="overflow:visible" id="marker33148-3-36" orient="auto" refX="0" refY="0"><path style="fill:#000;fill-opacity:1;fill-rule:evenodd;stroke:#000;stroke-width:.625;stroke-linejoin:round;stroke-opacity:1" id="path33150-6-7" d="M 8.7185878,4.0337352 -2.2072895,0.01601326 8.7185884,-4.0017078 c -1.7454984,2.3720609 -1.7354408,5.6174519 -6e-7,8.035443 z" transform="matrix(-1.1,0,0,-1.1,-1.1,0)"/></marker></defs><metadata id="metadata7"/><g id="layer1" transform="translate(-63.191144,-114.75571)"><rect style="fill:#fff;fill-opacity:1;fill-rule:nonzero;stroke:none;stroke-width:1.41093743;stroke-linecap:round;stroke-linejoin:round;stroke-miterlimit:4;stroke-dasharray:5.64374974,5.64374974;stroke-dashoffset:0;stroke-opacity:1" id="rect1761" width="727.492" height="605.764" x="98.624" y="130.301"/><rect style="opacity:1;fill:#e6e6e6;fill-opacity:1;stroke:none;stroke-width:3.34094;stroke-linecap:round;stroke-miterlimit:4;stroke-dasharray:none;stroke-dashoffset:0;stroke-opacity:1" id="rect2893-0-9-0-3" width="546.259" height="333.16" x="171.236" y="183.022" rx="17.942" ry="28.128"/><rect style="opacity:1;fill:#f4d1b4;fill-opacity:1;stroke:#000;stroke-width:1.93781245;stroke-linejoin:round;stroke-miterlimit:4;stroke-dasharray:none;stroke-dashoffset:0;stroke-opacity:.66666667" id="rect3336-3-9" width="69.08" height="59.032" x="244.746" y="399.632"/><rect style="opacity:1;fill:#f4d1b4;fill-opacity:1;stroke:#000;stroke-width:1.93781245;stroke-linejoin:round;stroke-miterlimit:4;stroke-dasharray:none;stroke-dashoffset:0;stroke-opacity:.66666667" id="rect3336-3-06" width="69.08" height="59.032" x="441.103" y="251.715"/><rect style="opacity:1;fill:#f4d1b4;fill-opacity:1;stroke:#000;stroke-width:1.93781245;stroke-linejoin:round;stroke-miterlimit:4;stroke-dasharray:none;stroke-dashoffset:0;stroke-opacity:.66666667" id="rect3336-3-06-2" width="69.08" height="59.032" x="606.371" y="354.704"/><path style="display:inline;fill:none;fill-rule:evenodd;stroke:#000;stroke-width:1px;stroke-linecap:butt;stroke-linejoin:miter;stroke-opacity:1;marker-end:url(#marker29572)" id="path4374" d="m 268.18486,242.57237 172.91805,32.22211"/><rect style="opacity:1;fill:#f55;fill-opacity:1;stroke:none;stroke-width:1.48365641;stroke-linecap:round;stroke-miterlimit:4;stroke-dasharray:none;stroke-dashoffset:0;stroke-opacity:1" id="rect2893-0-9-0" width="211.962" height="169.326" x="350.696" y="337.386" rx="6.962" ry="14.296"/><path style="fill:none;fill-rule:evenodd;stroke:#000;stroke-width:1px;stroke-linecap:butt;stroke-linejoin:miter;stroke-opacity:1;marker-end:url(#Arrow2Lend)" id="path4388" d="m 510.18248,302.75459 96.18843,59.9409"/><path style="fill:none;fill-rule:evenodd;stroke:#000;stroke-width:1px;stroke-linecap:butt;stroke-linejoin:miter;stroke-opacity:1;marker-end:url(#Arrow2Lend)" id="path20952" d="M 492.5177,429.5051 606.37091,394.76001"/><g id="g1210" transform="translate(-93.316955,-50.682108)"><rect id="rect3336-3-93" width="113.706" height="82.674" x="300.584" y="255.228" style="opacity:1;fill:#f4d1b4;fill-opacity:1;stroke:#000;stroke-width:2.94219208;stroke-linejoin:round;stroke-miterlimit:4;stroke-dasharray:none;stroke-dashoffset:0;stroke-opacity:.66666667"/><text id="text20998" x="356.76" y="289.233" xml:space="preserve" style="font-style:normal;font-variant:normal;font-weight:400;font-stretch:normal;line-height:0%;font-family:'Bitstream Charter';-inkscape-font-specification:'Bitstream Charter, Normal';text-align:center;letter-spacing:0;word-spacing:0;writing-mode:lr-tb;text-anchor:middle;fill:#000;fill-opacity:1;stroke:none;stroke-width:1px;stroke-linecap:butt;stroke-linejoin:miter;stroke-opacity:1"><tspan style="font-style:normal;font-variant:normal;font-weight:400;font-stretch:normal;font-size:25px;line-height:125%;font-family:'Bitstream Charter';-inkscape-font-specification:'Bitstream Charter, Normal';text-align:center;writing-mode:lr-tb;text-anchor:middle" id="tspan21008" x="356.76" y="289.233">classical</tspan><tspan style="font-style:normal;font-variant:normal;font-weight:400;font-stretch:normal;font-size:25px;line-height:125%;font-family:'Bitstream Charter';-inkscape-font-specification:'Bitstream Charter, Normal';text-align:center;writing-mode:lr-tb;text-anchor:middle" id="tspan21010" x="356.76" y="320.483">node</tspan></text></g><path style="fill:none;fill-rule:evenodd;stroke:#000;stroke-width:1px;stroke-linecap:butt;stroke-linejoin:miter;stroke-opacity:1;marker-end:url(#marker30568)" id="path23492" d="m 314.06255,431.21478 75.20404,-0.044"/><rect style="opacity:1;fill:#8edbce;fill-opacity:1;stroke:#000;stroke-width:1.98221731;stroke-linejoin:round;stroke-miterlimit:4;stroke-dasharray:none;stroke-dashoffset:0;stroke-opacity:.66666667" id="rect3336-3-2-5-3" width="124.177" height="83.474" x="391.995" y="390.413" ry="18.832"/><flowRoot style="font-style:normal;font-weight:400;line-height:.01%;font-family:sans-serif;text-align:center;letter-spacing:0;word-spacing:0;text-anchor:middle;fill:#34347b;fill-opacity:1;stroke:none;stroke-width:1px;stroke-linecap:butt;stroke-linejoin:miter;stroke-opacity:1" id="flowRoot3102-4" transform="matrix(0.71468261,0,0,0.71468261,38.857019,189.20473)" xml:space="preserve"><flowRegion style="text-align:center;text-anchor:middle;fill:#34347b;fill-opacity:1" id="flowRegion3104-7"><rect style="text-align:center;text-anchor:middle;fill:#34347b;fill-opacity:1" id="rect3106-9" width="229.466" height="110.206" x="142.857" y="538.948"/></flowRegion><flowPara style="font-style:normal;font-variant:normal;font-weight:500;font-stretch:normal;font-size:40px;line-height:1.25;font-family:aakar;-inkscape-font-specification:'aakar, Medium';font-variant-ligatures:normal;font-variant-caps:normal;font-variant-numeric:normal;font-feature-settings:normal;text-align:center;writing-mode:lr-tb;text-anchor:middle;fill:#34347b;fill-opacity:1" id="flowPara3108-3">quantum</flowPara><flowPara id="flowPara11803" style="font-style:normal;font-variant:normal;font-weight:500;font-stretch:normal;font-size:40px;line-height:1.25;font-family:aakar;-inkscape-font-specification:'aakar, Medium';font-variant-ligatures:normal;font-variant-caps:normal;font-variant-numeric:normal;font-feature-settings:normal;text-align:center;writing-mode:lr-tb;text-anchor:middle;fill:#34347b;fill-opacity:1">device</flowPara></flowRoot><path id="path11369" d="m 454.5982,474.42548 v 62.54464" style="fill:none;fill-rule:evenodd;stroke:#000;stroke-width:1.78125;stroke-linecap:butt;stroke-linejoin:miter;stroke-miterlimit:4;stroke-dasharray:10.68750024,1.78125004;stroke-dashoffset:0;stroke-opacity:1"/><rect id="rect3100-7" width="358.994" height="145.785" x="289.952" y="536.52" ry="36.938" style="fill:#d7d7f4;fill-opacity:1;fill-rule:nonzero;stroke:#000;stroke-width:1.52625;stroke-linecap:round;stroke-linejoin:round;stroke-miterlimit:4;stroke-dasharray:6.10499983,6.10499983;stroke-dashoffset:0;stroke-opacity:1"/><rect style="fill:url(#radialGradient12779);fill-opacity:1;fill-rule:nonzero;stroke:none;stroke-width:.18749999;stroke-linecap:round;stroke-linejoin:round;stroke-miterlimit:8.28866673;stroke-dasharray:none;stroke-dashoffset:0;stroke-opacity:1" id="rect13251" width="354.071" height="140.097" x="291.883" y="538.209" ry="33.146"/><path id="path9973" d="M 382.1443,605.00516 H 573.44194" style="fill:none;fill-rule:evenodd;stroke:#000;stroke-width:.93749994px;stroke-linecap:butt;stroke-linejoin:miter;stroke-opacity:1"/><path id="path9973-6" d="M 383.56482,643.30227 H 574.86246" style="fill:none;fill-rule:evenodd;stroke:#000;stroke-width:.93749994px;stroke-linecap:butt;stroke-linejoin:miter;stroke-opacity:1"/><path id="path10270" d="m 344.38952,594.49825 v -0.0794 -0.0844 l -0.005,-0.0794 v -0.0397 -0.0397 l -0.005,-0.0397 -0.005,-0.0397 -0.005,-0.0347 -0.005,-0.0347 -0.0104,-0.0347 -0.005,-0.0347 -0.0104,-0.0347 -0.0104,-0.0298 -0.0156,-0.0298 -0.0156,-0.0298 -0.0156,-0.0298 -0.0156,-0.0248 -0.0208,-0.0248 -0.0208,-0.0248 -0.026,-0.0199 -0.026,-0.0199 -0.0156,-0.005 -0.0156,-0.01 -0.0156,-0.01 -0.0156,-0.005 -0.0156,-0.005 -0.0156,-0.01 -0.0156,-0.005 -0.0208,-0.005 -0.0208,-0.005 -0.0156,-0.005 h -0.0208 l -0.0208,-0.005 h -0.0208 l -0.026,-0.005 h -0.0208 -0.026 c -0.52097,0 -0.52097,0.44174 -0.52097,0.88347 v 22.9505 c 0,0.4467 0,0.88844 0.52097,0.88844 0.52098,0 0.52098,-0.44174 0.52098,-0.88844 z" style="font-style:normal;font-variant:normal;font-weight:400;font-stretch:normal;letter-spacing:normal;word-spacing:normal;text-anchor:start;fill:#000;fill-opacity:1;fill-rule:evenodd;stroke:#000;stroke-width:0;stroke-linecap:butt;stroke-linejoin:miter;stroke-miterlimit:10.43299961;stroke-dasharray:none;stroke-dashoffset:0;stroke-opacity:1"/><path id="path10272" d="m 359.39356,604.24626 -0.005,-0.36728 -0.005,-0.37226 -0.0104,-0.37224 -0.0156,-0.3673 -0.0208,-0.37224 -0.0313,-0.3673 -0.0417,-0.36728 -0.0521,-0.36233 -0.0573,-0.36232 -0.0729,-0.36233 -0.0833,-0.35736 -0.099,-0.35736 -0.11461,-0.35736 -0.12503,-0.34743 -0.14588,-0.34744 -0.0781,-0.17371 -0.0834,-0.16876 c -1.18782,-2.3824 -3.32381,-2.77947 -4.41265,-2.77947 -1.5525,0 -3.45405,0.64524 -4.51684,2.94823 -0.83356,1.70739 -0.9638,3.63813 -0.9638,5.61354 0,1.85629 0.10941,4.07987 1.17219,5.95601 1.11489,2.00023 3.01644,2.49656 4.28241,2.49656 v -0.541 c -1.00548,0 -2.54757,-0.62042 -3.01123,-2.9929 -0.28654,-1.47908 -0.28654,-3.75229 -0.28654,-5.22144 0,-1.57834 0,-3.20631 0.2136,-4.54145 0.48972,-2.94823 2.43295,-3.16662 3.08417,-3.16662 0.85439,0 2.57361,0.44174 3.06332,2.89363 0.26049,1.37981 0.26049,3.26588 0.26049,4.81444 0,1.86126 0,3.53887 -0.28654,5.12217 -0.39073,2.34766 -1.87029,3.09217 -3.03727,3.09217 v 0 0.541 c 1.40142,0 3.3707,-0.51619 4.51684,-2.86881 0.83356,-1.70243 0.9638,-3.6282 0.9638,-5.58376 z" style="font-style:normal;font-variant:normal;font-weight:400;font-stretch:normal;letter-spacing:normal;word-spacing:normal;text-anchor:start;fill:#000;fill-opacity:1;fill-rule:evenodd;stroke:#000;stroke-width:0;stroke-linecap:butt;stroke-linejoin:miter;stroke-miterlimit:10.43299961;stroke-dasharray:none;stroke-dashoffset:0;stroke-opacity:1"/><path id="path10274" d="m 367.53638,606.39539 0.005,-0.0149 0.005,-0.01 0.005,-0.0149 0.005,-0.01 0.005,-0.0149 0.005,-0.01 0.005,-0.0149 0.005,-0.01 0.005,-0.01 0.005,-0.01 0.005,-0.01 v -0.0149 l 0.0104,-0.0149 0.005,-0.0199 0.005,-0.0199 0.0104,-0.0149 0.005,-0.0149 0.005,-0.0149 v -0.0149 l 0.005,-0.01 0.005,-0.0149 0.005,-0.01 v -0.01 l 0.005,-0.01 v -0.01 -0.01 l 0.005,-0.01 v -0.005 -0.01 -0.005 -0.01 l 0.005,-0.005 v -0.0149 -0.0149 -0.01 c 0,-0.0794 0,-0.12409 -0.13024,-0.42189 l -4.54289,-11.37598 c -0.15629,-0.41692 -0.31259,-0.56582 -0.59391,-0.56582 -0.28654,0 -0.52098,0.21839 -0.52098,0.49137 0,0.0744 0,0.12408 0.13025,0.3921 l 4.60019,11.48021 -4.60019,11.42066 c -0.13025,0.27298 -0.13025,0.31765 -0.13025,0.44173 0,0.27299 0.23444,0.49634 0.52098,0.49634 0.33863,0 0.43762,-0.24817 0.54181,-0.49634 z" style="font-style:normal;font-variant:normal;font-weight:400;font-stretch:normal;letter-spacing:normal;word-spacing:normal;text-anchor:start;fill:#000;fill-opacity:1;fill-rule:evenodd;stroke:#000;stroke-width:0;stroke-linecap:butt;stroke-linejoin:miter;stroke-miterlimit:10.43299961;stroke-dasharray:none;stroke-dashoffset:0;stroke-opacity:1"/><path id="path10270-1" d="m 344.98373,631.8626 v -0.0794 -0.0844 l -0.005,-0.0794 v -0.0397 -0.0397 l -0.005,-0.0397 -0.005,-0.0397 -0.005,-0.0347 -0.005,-0.0347 -0.0104,-0.0348 -0.005,-0.0347 -0.0104,-0.0347 -0.0104,-0.0298 -0.0156,-0.0298 -0.0156,-0.0298 -0.0156,-0.0298 -0.0156,-0.0248 -0.0208,-0.0248 -0.0208,-0.0248 -0.026,-0.0199 -0.026,-0.0199 -0.0156,-0.005 -0.0156,-0.01 -0.0156,-0.01 -0.0156,-0.005 -0.0156,-0.005 -0.0156,-0.01 -0.0156,-0.005 -0.0208,-0.005 -0.0208,-0.005 -0.0156,-0.005 h -0.0208 l -0.0208,-0.005 h -0.0208 l -0.026,-0.005 h -0.0208 -0.026 c -0.52097,0 -0.52097,0.44174 -0.52097,0.88347 v 22.9505 c 0,0.4467 0,0.88844 0.52097,0.88844 0.52098,0 0.52098,-0.44174 0.52098,-0.88844 z" style="font-style:normal;font-variant:normal;font-weight:400;font-stretch:normal;letter-spacing:normal;word-spacing:normal;text-anchor:start;fill:#000;fill-opacity:1;fill-rule:evenodd;stroke:#000;stroke-width:0;stroke-linecap:butt;stroke-linejoin:miter;stroke-miterlimit:10.43299961;stroke-dasharray:none;stroke-dashoffset:0;stroke-opacity:1"/><path id="path10272-2" d="m 359.98777,641.61061 -0.005,-0.3673 -0.005,-0.37224 -0.0104,-0.37226 -0.0156,-0.36729 -0.0208,-0.37225 -0.0313,-0.36729 -0.0417,-0.36728 -0.0521,-0.36233 -0.0573,-0.36232 -0.0729,-0.36233 -0.0833,-0.35736 -0.099,-0.35736 -0.11461,-0.35736 -0.12503,-0.34743 -0.14588,-0.34744 -0.0781,-0.17371 -0.0834,-0.16876 c -1.18782,-2.3824 -3.32381,-2.77947 -4.41265,-2.77947 -1.5525,0 -3.45405,0.64524 -4.51684,2.94823 -0.83356,1.70739 -0.9638,3.63813 -0.9638,5.61354 0,1.85629 0.10941,4.07987 1.17219,5.95601 1.11489,2.00023 3.01644,2.49656 4.28241,2.49656 v -0.541 c -1.00548,0 -2.54757,-0.62042 -3.01123,-2.9929 -0.28654,-1.47907 -0.28654,-3.75229 -0.28654,-5.22144 0,-1.57834 0,-3.20631 0.2136,-4.54145 0.48972,-2.94823 2.43295,-3.16662 3.08417,-3.16662 0.85439,0 2.57361,0.44174 3.06332,2.89363 0.26049,1.37981 0.26049,3.26588 0.26049,4.81444 0,1.86126 0,3.53887 -0.28654,5.12217 -0.39073,2.34766 -1.87029,3.09217 -3.03727,3.09217 v 0 0.541 c 1.40142,0 3.3707,-0.51619 4.51684,-2.86881 0.83356,-1.70243 0.9638,-3.6282 0.9638,-5.58376 z" style="font-style:normal;font-variant:normal;font-weight:400;font-stretch:normal;letter-spacing:normal;word-spacing:normal;text-anchor:start;fill:#000;fill-opacity:1;fill-rule:evenodd;stroke:#000;stroke-width:0;stroke-linecap:butt;stroke-linejoin:miter;stroke-miterlimit:10.43299961;stroke-dasharray:none;stroke-dashoffset:0;stroke-opacity:1"/><path id="path10274-7" d="m 368.13059,643.75974 0.005,-0.0149 0.005,-0.01 0.005,-0.0149 0.005,-0.01 0.005,-0.0149 0.005,-0.01 0.005,-0.0149 0.005,-0.01 0.005,-0.01 0.005,-0.01 0.005,-0.01 v -0.0149 l 0.0104,-0.0149 0.005,-0.0198 0.005,-0.0199 0.0104,-0.0149 0.005,-0.0149 0.005,-0.0149 v -0.0149 l 0.005,-0.01 0.005,-0.0149 0.005,-0.01 v -0.01 l 0.005,-0.01 v -0.01 -0.01 l 0.005,-0.01 v -0.005 -0.01 -0.005 -0.01 l 0.005,-0.005 v -0.0149 -0.0149 -0.01 c 0,-0.0794 0,-0.12408 -0.13024,-0.42189 l -4.54289,-11.37598 c -0.15629,-0.41691 -0.31259,-0.56582 -0.59391,-0.56582 -0.28654,0 -0.52098,0.21839 -0.52098,0.49137 0,0.0745 0,0.12408 0.13025,0.3921 l 4.60019,11.48021 -4.60019,11.42066 c -0.13025,0.27298 -0.13025,0.31765 -0.13025,0.44173 0,0.273 0.23444,0.49634 0.52098,0.49634 0.33863,0 0.43762,-0.24817 0.54181,-0.49634 z" style="font-style:normal;font-variant:normal;font-weight:400;font-stretch:normal;letter-spacing:normal;word-spacing:normal;text-anchor:start;fill:#000;fill-opacity:1;fill-rule:evenodd;stroke:#000;stroke-width:0;stroke-linecap:butt;stroke-linejoin:miter;stroke-miterlimit:10.43299961;stroke-dasharray:none;stroke-dashoffset:0;stroke-opacity:1"/><rect id="rect9971" width="128.378" height="64.455" x="414.551" y="591.955" ry="0" style="fill:#fff;fill-opacity:1;fill-rule:nonzero;stroke:#000;stroke-width:1.16608906;stroke-linecap:round;stroke-linejoin:round;stroke-miterlimit:4;stroke-dasharray:none;stroke-dashoffset:0;stroke-opacity:1"/><path style="fill:#000;fill-rule:evenodd;stroke:#000;stroke-width:.58076888px;stroke-linecap:butt;stroke-linejoin:miter;stroke-opacity:1" id="path10609" d="m 573.93802,595.5106 c 5.49343,0.0789 7.98006,1.89008 8.15614,8.35698 0.18437,6.77142 -2.62307,10.04233 -8.15614,10.12298 z"/><path style="fill:#000;fill-rule:evenodd;stroke:#000;stroke-width:.58076888px;stroke-linecap:butt;stroke-linejoin:miter;stroke-opacity:1" id="path10609-9" d="m 573.93802,634.40135 c 5.49344,0.0789 7.98007,1.89008 8.15615,8.35698 0.18437,6.77143 -2.62307,10.04233 -8.15615,10.12298 z"/><flowRoot style="font-style:normal;font-weight:400;line-height:.01%;font-family:sans-serif;letter-spacing:0;word-spacing:0;fill:#000;fill-opacity:1;stroke:none;stroke-width:1px;stroke-linecap:butt;stroke-linejoin:miter;stroke-opacity:1" id="flowRoot3102-4-3" transform="matrix(0.71468261,0,0,0.71468261,268.47593,161.45726)" xml:space="preserve"><flowRegion id="flowRegion3104-7-6"><rect id="rect3106-9-0" width="312.857" height="79.286" x="142.857" y="538.948"/></flowRegion><flowPara style="font-style:normal;font-variant:normal;font-weight:500;font-stretch:normal;font-size:40px;line-height:1.25;font-family:aakar;-inkscape-font-specification:'aakar, Medium';font-variant-ligatures:normal;font-variant-caps:normal;font-variant-numeric:normal;font-feature-settings:normal;text-align:start;writing-mode:lr-tb;text-anchor:start" id="flowPara3108-3-6">variational circuit</flowPara></flowRoot><text style="font-style:normal;font-variant:normal;font-weight:400;font-stretch:normal;line-height:0%;font-family:'Bitstream Charter';-inkscape-font-specification:'Bitstream Charter, Normal';text-align:center;letter-spacing:0;word-spacing:0;writing-mode:lr-tb;text-anchor:middle;fill:#000;fill-opacity:1;stroke:none;stroke-width:1px;stroke-linecap:butt;stroke-linejoin:miter;stroke-opacity:1" id="text20998-3" x="455.303" y="423.344" xml:space="preserve"><tspan id="tspan21008-8" x="455.303" y="423.344" style="font-style:normal;font-variant:normal;font-weight:400;font-stretch:normal;font-size:25px;line-height:125%;font-family:'Bitstream Charter';-inkscape-font-specification:'Bitstream Charter, Normal';text-align:center;writing-mode:lr-tb;text-anchor:middle">quantum</tspan><tspan id="tspan21010-0" x="455.303" y="454.594" style="font-style:normal;font-variant:normal;font-weight:400;font-stretch:normal;font-size:25px;line-height:125%;font-family:'Bitstream Charter';-inkscape-font-specification:'Bitstream Charter, Normal';text-align:center;writing-mode:lr-tb;text-anchor:middle">node</tspan></text><path style="fill:none;fill-rule:evenodd;stroke:#000;stroke-width:1px;stroke-linecap:butt;stroke-linejoin:miter;stroke-opacity:1;marker-end:url(#marker33148-3-3)" id="path23484-7-7" d="m 676.56912,384.32949 h 23.44661"/><g id="g2653" transform="matrix(0.74097577,0,0,0.74097577,127.68782,159.57946)"><path id="path9677" d="m 447.45746,615.04999 0.0734,-0.27158 0.0367,-0.13946 0.044,-0.13212 0.044,-0.12478 0.0514,-0.12477 0.0514,-0.12478 0.0587,-0.11744 0.0587,-0.11744 0.0734,-0.11744 0.0661,-0.1101 0.0807,-0.10276 0.0807,-0.10276 0.0954,-0.10275 0.0954,-0.0881 0.10276,-0.0954 0.1101,-0.0881 0.12478,-0.0807 0.12477,-0.0807 0.13946,-0.0734 0.13946,-0.0661 0.15414,-0.0661 0.16882,-0.0587 0.16882,-0.0587 0.19083,-0.0514 0.19084,-0.044 0.20552,-0.044 0.2202,-0.0294 0.22753,-0.0367 0.24222,-0.022 0.2569,-0.022 0.13212,-0.007 h 0.13946 c 0.18349,0 0.61655,-0.0367 0.61655,-0.73399 0,-0.0367 0,-0.4037 -0.46976,-0.4037 -1.20374,0 -2.48823,0.11744 -3.72867,0.11744 -1.24779,0 -2.60568,-0.11744 -3.80942,-0.11744 -0.21286,0 -0.65326,0 -0.65326,0.73399 0,0.4037 0.367,0.4037 0.65326,0.4037 2.09187,0.0294 2.48823,0.80006 2.48823,1.6001 0,0.11744 -0.0807,0.66793 -0.1101,0.77069 l -3.29562,13.06506 c -1.23311,4.89572 -5.44622,8.07391 -9.1015,8.07391 -2.48089,0 -4.46267,-1.60745 -4.46267,-4.74893 0,-0.0807 0,-1.24779 0.40369,-2.85523 l 3.55252,-14.22476 c 0.32296,-1.31385 0.4037,-1.68084 3.07543,-1.68084 0.93951,0 1.23311,0 1.23311,-0.734 0,-0.40369 -0.39636,-0.40369 -0.5138,-0.40369 -1.02025,0 -3.65528,0.11744 -4.67553,0.11744 -1.05694,0 -3.66262,-0.11744 -4.71956,-0.11744 -0.2936,0 -0.6973,0 -0.6973,0.73399 0,0.4037 0.3303,0.4037 1.03493,0.4037 0.0661,0 0.76335,0 1.38725,0.0661 0.65325,0.0807 0.98355,0.11743 0.98355,0.58719 0,0.22754 -0.4037,1.75424 -0.61656,2.59833 l -0.81473,3.21488 c -0.32295,1.43129 -2.0772,8.33815 -2.22399,9.03544 -0.2569,1.02025 -0.2569,1.57075 -0.2569,2.12124 0,4.46267 3.32498,7.01696 7.1711,7.01696 4.59479,0 9.1382,-4.12503 10.34195,-8.9547 z" style="font-style:normal;font-variant:normal;font-weight:400;font-stretch:normal;letter-spacing:normal;word-spacing:normal;text-anchor:start;fill:#000;fill-opacity:1;fill-rule:evenodd;stroke:#000;stroke-width:0;stroke-linecap:butt;stroke-linejoin:miter;stroke-miterlimit:10.43299961;stroke-dasharray:none;stroke-dashoffset:0;stroke-opacity:1"/><path id="path9679" d="m 465.22006,644.96015 v -0.0147 -0.022 -0.007 -0.0147 l -0.007,-0.007 v -0.0147 l -0.007,-0.007 v -0.0147 l -0.007,-0.0147 -0.007,-0.0147 -0.007,-0.0147 -0.0147,-0.022 -0.007,-0.0147 -0.0147,-0.022 -0.0147,-0.022 -0.022,-0.022 -0.0147,-0.022 -0.022,-0.0294 -0.0147,-0.0147 -0.0147,-0.0147 -0.007,-0.0147 -0.0147,-0.0147 -0.0147,-0.0147 -0.0147,-0.022 -0.0147,-0.0147 -0.0147,-0.0147 -0.022,-0.022 -0.0147,-0.0147 -0.0147,-0.022 -0.022,-0.022 -0.022,-0.022 -0.0147,-0.022 -0.022,-0.022 -0.022,-0.022 -0.022,-0.022 -0.022,-0.022 -0.0294,-0.0294 -0.022,-0.022 -0.0294,-0.0294 -0.022,-0.022 -0.0294,-0.0294 -0.0294,-0.0294 c -4.56543,-4.60946 -5.73248,-11.51633 -5.73248,-17.10935 0,-6.36371 1.38725,-12.73476 5.87928,-17.29284 0.46975,-0.44774 0.46975,-0.52114 0.46975,-0.63124 0,-0.25689 -0.13212,-0.35965 -0.35231,-0.35965 -0.367,0 -3.66262,2.48089 -5.81322,7.11972 -1.87168,4.02961 -2.30473,8.08859 -2.30473,11.16401 0,2.85523 0.39635,7.26652 2.40749,11.40624 2.1873,4.49937 5.34346,6.87016 5.71046,6.87016 0.22019,0 0.35231,-0.10276 0.35231,-0.36699 z" style="font-style:normal;font-variant:normal;font-weight:400;font-stretch:normal;letter-spacing:normal;word-spacing:normal;text-anchor:start;fill:#000;fill-opacity:1;fill-rule:evenodd;stroke:#000;stroke-width:0;stroke-linecap:butt;stroke-linejoin:miter;stroke-miterlimit:10.43299961;stroke-dasharray:none;stroke-dashoffset:0;stroke-opacity:1"/><path id="path9681" d="m 479.51822,625.14236 0.022,-0.0954 0.022,-0.1101 0.0294,-0.11744 0.0367,-0.13212 0.0367,-0.13945 0.044,-0.15415 0.0514,-0.16148 0.0514,-0.16147 0.0587,-0.16881 0.0661,-0.17616 0.0661,-0.1835 0.0807,-0.17616 0.0807,-0.18349 0.0881,-0.1835 0.0954,-0.1835 0.0954,-0.1835 0.1101,-0.17616 0.11744,-0.17615 0.11744,-0.16882 0.13212,-0.16148 0.13946,-0.16148 0.1468,-0.1468 0.15413,-0.13945 0.16148,-0.13212 0.16882,-0.11744 0.17616,-0.10276 0.0954,-0.0514 0.0954,-0.044 0.0954,-0.0367 0.10275,-0.0367 0.10276,-0.0367 0.10276,-0.0294 0.1101,-0.022 0.10276,-0.022 0.11744,-0.0147 0.1101,-0.0147 0.11744,-0.007 h 0.11743 c 0.1835,0 1.05695,0 1.82764,0.46976 -1.02024,0.1835 -1.75424,1.10099 -1.75424,1.97444 0,0.57985 0.39636,1.28448 1.38725,1.28448 0.80005,0 1.97444,-0.65325 1.97444,-2.12124 0,-1.90837 -2.15794,-2.40749 -3.39839,-2.40749 -2.12123,0 -3.40572,1.93774 -3.83877,2.77449 -0.91749,-2.40749 -2.89193,-2.77449 -3.94888,-2.77449 -3.80942,0 -5.89395,4.71223 -5.89395,5.62972 0,0.36699 0.36699,0.36699 0.44773,0.36699 0.28626,0 0.4037,-0.0807 0.46976,-0.40369 1.24044,-3.87548 3.65527,-4.79297 4.89572,-4.79297 0.69729,0 1.97444,0.32296 1.97444,2.4442 0,1.13034 -0.61655,3.58922 -1.97444,8.70514 -0.58719,2.26803 -1.857,3.80208 -3.47178,3.80208 -0.2202,0 -1.05695,0 -1.82764,-0.4771 0.91749,-0.17616 1.72488,-0.93951 1.72488,-1.97444 0,-0.98355 -0.80739,-1.2698 -1.35788,-1.2698 -1.10099,0 -2.01848,0.94685 -2.01848,2.12123 0,1.67351 1.83498,2.4075 3.44242,2.4075 2.42217,0 3.72868,-2.56163 3.83878,-2.77449 0.44039,1.35054 1.76158,2.77449 3.94887,2.77449 3.77272,0 5.85726,-4.71223 5.85726,-5.62972 0,-0.367 -0.3303,-0.367 -0.44774,-0.367 -0.31561,0 -0.39635,0.1468 -0.46975,0.39636 -1.20375,3.91218 -3.69198,4.79297 -4.85903,4.79297 -1.43128,0 -2.01847,-1.16705 -2.01847,-2.41484 0,-0.80739 0.22019,-1.60744 0.63123,-3.21488 z" style="font-style:normal;font-variant:normal;font-weight:400;font-stretch:normal;letter-spacing:normal;word-spacing:normal;text-anchor:start;fill:#000;fill-opacity:1;fill-rule:evenodd;stroke:#000;stroke-width:0;stroke-linecap:butt;stroke-linejoin:miter;stroke-miterlimit:10.43299961;stroke-dasharray:none;stroke-dashoffset:0;stroke-opacity:1"/><path id="path9683" d="m 495.59265,636.15224 v -0.22019 l -0.007,-0.22019 -0.0147,-0.21286 -0.0147,-0.20552 -0.0294,-0.19818 -0.022,-0.19083 -0.0367,-0.19084 -0.0367,-0.17616 -0.044,-0.17616 -0.044,-0.16882 -0.0514,-0.16147 -0.0587,-0.15414 -0.0587,-0.1468 -0.0661,-0.13946 -0.0734,-0.13946 -0.0734,-0.12478 -0.0807,-0.11743 -0.0807,-0.11744 -0.0881,-0.10276 -0.0881,-0.0954 -0.0954,-0.0954 -0.0954,-0.0807 -0.10276,-0.0734 -0.10276,-0.0734 -0.1101,-0.0587 -0.11744,-0.0514 -0.11009,-0.044 -0.12478,-0.0367 -0.12478,-0.0294 -0.12478,-0.022 -0.12478,-0.007 -0.13946,-0.007 c -1.20374,0 -1.93774,0.91749 -1.93774,1.93773 0,0.98355 0.734,1.93774 1.93774,1.93774 0.4404,0 0.91749,-0.1468 1.28449,-0.46975 0.1101,-0.0807 0.15414,-0.11744 0.1835,-0.11744 0.0367,0 0.0734,0.0367 0.0734,0.55049 0,2.70843 -1.27715,4.90307 -2.48824,6.10682 -0.40369,0.39635 -0.40369,0.47709 -0.40369,0.57985 0,0.26424 0.1835,0.40369 0.36699,0.40369 0.4037,0 3.32499,-2.81118 3.32499,-7.09036 z" style="font-style:normal;font-variant:normal;font-weight:400;font-stretch:normal;letter-spacing:normal;word-spacing:normal;text-anchor:start;fill:#000;fill-opacity:1;fill-rule:evenodd;stroke:#000;stroke-width:0;stroke-linecap:butt;stroke-linejoin:miter;stroke-miterlimit:10.43299961;stroke-dasharray:none;stroke-dashoffset:0;stroke-opacity:1"/><path id="path9687" d="m 533.17303,627.05074 v -0.27157 l -0.007,-0.28625 -0.007,-0.28627 -0.007,-0.30092 -0.0294,-0.61657 -0.044,-0.64591 -0.0587,-0.67527 -0.0807,-0.69728 -0.0954,-0.71198 -0.12477,-0.74133 -0.13946,-0.74867 -0.16882,-0.75601 -0.19818,-0.77069 -0.22754,-0.77803 -0.25689,-0.78538 -0.28626,-0.78537 -0.15414,-0.38901 -0.16882,-0.38902 -0.16882,-0.38901 -0.18349,-0.38902 c -2.19464,-4.49203 -5.33612,-6.87016 -5.70312,-6.87016 -0.2202,0 -0.367,0.13945 -0.367,0.35965 0,0.1101 0,0.1835 0.68996,0.84409 3.58922,3.61124 5.67375,9.4318 5.67375,17.07999 0,6.24627 -1.35054,12.68338 -5.89395,17.29285 -0.46976,0.43306 -0.46976,0.5138 -0.46976,0.61656 0,0.22019 0.1468,0.36699 0.367,0.36699 0.367,0 3.64794,-2.48823 5.81322,-7.12706 1.85699,-4.01494 2.29739,-8.07391 2.29739,-11.14934 z" style="font-style:normal;font-variant:normal;font-weight:400;font-stretch:normal;letter-spacing:normal;word-spacing:normal;text-anchor:start;fill:#000;fill-opacity:1;fill-rule:evenodd;stroke:#000;stroke-width:0;stroke-linecap:butt;stroke-linejoin:miter;stroke-miterlimit:10.43299961;stroke-dasharray:none;stroke-dashoffset:0;stroke-opacity:1"/><g id="g2050" inkscapeversion="0.92.3" transform="matrix(3.9097957,0,0,3.9097957,-81.522009,112.71373)" ns1:alignment="middle center" ns1:jacobian_sqrt="2.451" ns1:pdfconverter="pdf2svg" ns1:preamble="/home/maria/.config/inkscape/extensions/textext/default_packages.tex" ns1:scale="1.838" ns1:texconverter="pdflatex" ns1:text="$\\theta$" ns1:version="0.11.0"><g id="surface1"><g id="g2047" style="fill:#000;fill-opacity:1"><path id="path2045" d="m 4.53125,-4.984375 c 0,-0.65625 -0.171875,-2.046875 -1.1875,-2.046875 -1.390625,0 -2.921875,2.8125 -2.921875,5.09375 0,0.9375 0.28125,2.046875 1.1875,2.046875 1.40625,0 2.921875,-2.859375 2.921875,-5.09375 z M 1.46875,-3.625 C 1.640625,-4.25 1.84375,-5.046875 2.25,-5.765625 2.515625,-6.25 2.875,-6.8125 3.328125,-6.8125 c 0.484375,0 0.546875,0.640625 0.546875,1.203125 0,0.5 -0.078125,1 -0.3125,1.984375 z m 2,0.328125 C 3.359375,-2.84375 3.15625,-2 2.765625,-1.28125 c -0.34375,0.6875 -0.71875,1.171875 -1.15625,1.171875 -0.328125,0 -0.53125,-0.296875 -0.53125,-1.21875 0,-0.421875 0.0625,-1 0.3125,-1.96875 z m 0,0" transform="translate(148.712,134.765)" style="stroke:none;stroke-width:0"/></g></g></g></g><g id="g2778" inkscapeversion="0.92.3" transform="matrix(2.8160884,0,0,2.8160884,302.28277,13.307692)" ns1:alignment="middle center" ns1:jacobian_sqrt="2.451" ns1:pdfconverter="pdf2svg" ns1:preamble="/home/maria/.config/inkscape/extensions/textext/default_packages.tex" ns1:scale="1.838" ns1:texconverter="pdflatex" ns1:text="Cost($\\theta$)" ns1:version="0.11.0"><g id="g2776"><g id="g2766" style="fill:#000;fill-opacity:1"><path id="path2756" d="m 0.5625,-3.40625 c 0,2.0625 1.609375,3.625 3.46875,3.625 1.625,0 2.59375,-1.390625 2.59375,-2.546875 C 6.625,-2.421875 6.625,-2.5 6.5,-2.5 6.390625,-2.5 6.390625,-2.4375 6.375,-2.328125 6.296875,-0.90625 5.234375,-0.09375 4.140625,-0.09375 c -0.609375,0 -2.5625,-0.328125 -2.5625,-3.3125 0,-2.96875 1.953125,-3.3125 2.5625,-3.3125 1.078125,0 1.96875,0.90625 2.171875,2.359375 C 6.328125,-4.21875 6.328125,-4.1875 6.46875,-4.1875 6.625,-4.1875 6.625,-4.21875 6.625,-4.421875 V -6.78125 c 0,-0.171875 0,-0.25 -0.109375,-0.25 -0.03125,0 -0.078125,0 -0.15625,0.125 l -0.5,0.734375 C 5.5,-6.53125 4.984375,-7.03125 4.03125,-7.03125 c -1.875,0 -3.46875,1.59375 -3.46875,3.625 z m 0,0" transform="translate(148.712,134.765)" style="stroke:none;stroke-width:0"/><path id="path2758" d="M 4.6875,-2.140625 C 4.6875,-3.40625 3.703125,-4.46875 2.5,-4.46875 c -1.25,0 -2.21875,1.09375 -2.21875,2.328125 0,1.296875 1.03125,2.25 2.203125,2.25 1.203125,0 2.203125,-0.984375 2.203125,-2.25 z m -2.1875,2 c -0.4375,0 -0.875,-0.203125 -1.140625,-0.671875 -0.25,-0.4375 -0.25,-1.046875 -0.25,-1.40625 0,-0.390625 0,-0.921875 0.234375,-1.359375 C 1.609375,-4.03125 2.078125,-4.25 2.484375,-4.25 c 0.4375,0 0.859375,0.21875 1.125,0.65625 0.265625,0.421875 0.265625,1 0.265625,1.375 0,0.359375 0,0.90625 -0.21875,1.34375 C 3.421875,-0.421875 2.984375,-0.140625 2.5,-0.140625 Z m 0,0" transform="translate(155.90699,134.765)" style="stroke:none;stroke-width:0"/><path id="path2760" d="m 2.078125,-1.9375 c 0.21875,0.046875 1.03125,0.203125 1.03125,0.921875 0,0.5 -0.34375,0.90625 -1.125,0.90625 -0.84375,0 -1.203125,-0.5625 -1.390625,-1.421875 C 0.5625,-1.65625 0.5625,-1.6875 0.453125,-1.6875 c -0.125,0 -0.125,0.0625 -0.125,0.234375 V -0.125 c 0,0.171875 0,0.234375 0.109375,0.234375 0.046875,0 0.0625,-0.015625 0.25,-0.203125 0.015625,-0.015625 0.015625,-0.03125 0.203125,-0.21875 0.4375,0.40625 0.890625,0.421875 1.09375,0.421875 1.140625,0 1.609375,-0.671875 1.609375,-1.390625 0,-0.515625 -0.296875,-0.828125 -0.421875,-0.9375 C 2.84375,-2.546875 2.453125,-2.625 2.03125,-2.703125 1.46875,-2.8125 0.8125,-2.9375 0.8125,-3.515625 c 0,-0.359375 0.25,-0.765625 1.109375,-0.765625 1.09375,0 1.15625,0.90625 1.171875,1.203125 0,0.09375 0.09375,0.09375 0.109375,0.09375 0.140625,0 0.140625,-0.046875 0.140625,-0.234375 v -1.015625 c 0,-0.15625 0,-0.234375 -0.109375,-0.234375 -0.046875,0 -0.078125,0 -0.203125,0.125 -0.03125,0.03125 -0.125,0.125 -0.171875,0.15625 -0.375,-0.28125 -0.78125,-0.28125 -0.9375,-0.28125 -1.21875,0 -1.59375,0.671875 -1.59375,1.234375 0,0.34375 0.15625,0.625 0.421875,0.84375 0.328125,0.25 0.609375,0.3125 1.328125,0.453125 z m 0,0" transform="translate(160.88829,134.765)" style="stroke:none;stroke-width:0"/><path id="path2762" d="m 1.71875,-3.984375 h 1.4375 v -0.3125 H 1.71875 V -6.125 h -0.25 c 0,0.8125 -0.296875,1.875 -1.28125,1.921875 v 0.21875 h 0.84375 v 2.75 c 0,1.21875 0.9375,1.34375 1.296875,1.34375 0.703125,0 0.984375,-0.703125 0.984375,-1.34375 v -0.5625 h -0.25 V -1.25 c 0,0.734375 -0.296875,1.109375 -0.671875,1.109375 -0.671875,0 -0.671875,-0.90625 -0.671875,-1.078125 z m 0,0" transform="translate(164.81754,134.765)" style="stroke:none;stroke-width:0"/><path id="path2764" d="m 3.296875,2.390625 c 0,-0.03125 0,-0.046875 -0.171875,-0.21875 C 1.890625,0.921875 1.5625,-0.96875 1.5625,-2.5 c 0,-1.734375 0.375,-3.46875 1.609375,-4.703125 0.125,-0.125 0.125,-0.140625 0.125,-0.171875 0,-0.078125 -0.03125,-0.109375 -0.09375,-0.109375 -0.109375,0 -1,0.6875 -1.59375,1.953125 -0.5,1.09375 -0.625,2.203125 -0.625,3.03125 0,0.78125 0.109375,1.984375 0.65625,3.125 C 2.25,1.84375 3.09375,2.5 3.203125,2.5 c 0.0625,0 0.09375,-0.03125 0.09375,-0.109375 z m 0,0" transform="translate(168.69199,134.765)" style="stroke:none;stroke-width:0"/></g><g id="g2770" style="fill:#000;fill-opacity:1"><path id="path2768" d="m 4.53125,-4.984375 c 0,-0.65625 -0.171875,-2.046875 -1.1875,-2.046875 -1.390625,0 -2.921875,2.8125 -2.921875,5.09375 0,0.9375 0.28125,2.046875 1.1875,2.046875 1.40625,0 2.921875,-2.859375 2.921875,-5.09375 z M 1.46875,-3.625 C 1.640625,-4.25 1.84375,-5.046875 2.25,-5.765625 2.515625,-6.25 2.875,-6.8125 3.328125,-6.8125 c 0.484375,0 0.546875,0.640625 0.546875,1.203125 0,0.5 -0.078125,1 -0.3125,1.984375 z m 2,0.328125 C 3.359375,-2.84375 3.15625,-2 2.765625,-1.28125 c -0.34375,0.6875 -0.71875,1.171875 -1.15625,1.171875 -0.328125,0 -0.53125,-0.296875 -0.53125,-1.21875 0,-0.421875 0.0625,-1 0.3125,-1.96875 z m 0,0" transform="translate(172.567,134.765)" style="stroke:none;stroke-width:0"/></g><g id="g2774" style="fill:#000;fill-opacity:1"><path id="path2772" d="m 2.875,-2.5 c 0,-0.765625 -0.109375,-1.96875 -0.65625,-3.109375 -0.59375,-1.21875 -1.453125,-1.875 -1.546875,-1.875 -0.0625,0 -0.109375,0.046875 -0.109375,0.109375 0,0.03125 0,0.046875 0.1875,0.234375 0.984375,0.984375 1.546875,2.5625 1.546875,4.640625 0,1.71875 -0.359375,3.46875 -1.59375,4.71875 C 0.5625,2.34375 0.5625,2.359375 0.5625,2.390625 0.5625,2.453125 0.609375,2.5 0.671875,2.5 0.765625,2.5 1.671875,1.8125 2.25,0.546875 2.765625,-0.546875 2.875,-1.65625 2.875,-2.5 Z m 0,0" transform="translate(177.521,134.765)" style="stroke:none;stroke-width:0"/></g></g></g><flowRoot style="font-style:normal;font-weight:400;line-height:.01%;font-family:sans-serif;letter-spacing:0;word-spacing:0;fill:#666;fill-opacity:1;stroke:none;stroke-width:1px;stroke-linecap:butt;stroke-linejoin:miter;stroke-opacity:1" id="flowRoot3102-4-3-6" transform="matrix(0.71468261,0,0,0.71468261,353.59239,-188.61055)" xml:space="preserve"><flowRegion id="flowRegion3104-7-6-7" style="fill:#666"><rect id="rect3106-9-0-5" width="339.359" height="60.734" x="142.857" y="538.948" style="fill:#666"/></flowRegion><flowPara style="font-style:normal;font-variant:normal;font-weight:500;font-stretch:normal;font-size:40px;line-height:1.25;font-family:aakar;-inkscape-font-specification:'aakar, Medium';font-variant-ligatures:normal;font-variant-caps:normal;font-variant-numeric:normal;font-feature-settings:normal;text-align:start;writing-mode:lr-tb;text-anchor:start;fill:#666" id="flowPara3108-3-6-3">hybrid computation</flowPara></flowRoot><flowRoot style="font-style:normal;font-weight:400;line-height:.01%;font-family:sans-serif;letter-spacing:0;word-spacing:0;fill:#fff;fill-opacity:1;stroke:none;stroke-width:1px;stroke-linecap:butt;stroke-linejoin:miter;stroke-opacity:1" id="flowRoot3102-4-3-6-1" transform="matrix(0.71468261,0,0,0.71468261,291.0095,-36.147164)" xml:space="preserve"><flowRegion id="flowRegion3104-7-6-7-2" style="fill:#fff"><rect id="rect3106-9-0-5-7" width="339.359" height="60.734" x="142.857" y="538.948" style="fill:#fff"/></flowRegion><flowPara style="font-style:normal;font-variant:normal;font-weight:500;font-stretch:normal;font-size:40px;line-height:1.25;font-family:aakar;-inkscape-font-specification:'aakar, Medium';font-variant-ligatures:normal;font-variant-caps:normal;font-variant-numeric:normal;font-feature-settings:normal;text-align:start;writing-mode:lr-tb;text-anchor:start;fill:#fff" id="flowPara3108-3-6-3-0">PennyLane</flowPara></flowRoot></g></svg>