<svg xmlns="http://www.w3.org/2000/svg" xmlns:svg="http://www.w3.org/2000/svg" id="svg2" width="201.627" height="59.547" version="1.1" viewBox="0 0 189.025 55.825"><metadata id="metadata7"/><flowRoot id="flowRoot4136" transform="translate(-209.13822,-217.065)" xml:space="preserve" style="font-style:normal;font-variant:normal;font-weight:400;font-stretch:normal;font-size:60px;line-height:125%;font-family:'Averta Std';-inkscape-font-specification:'Averta Std';letter-spacing:0;word-spacing:0;fill:#000;fill-opacity:1;stroke:none;stroke-width:1px;stroke-linecap:butt;stroke-linejoin:miter;stroke-opacity:1"><flowRegion id="flowRegion4138"><rect id="rect4140" width="525.714" height="151.429" x="134.286" y="185.219" style="font-style:normal;font-variant:normal;font-weight:400;font-stretch:normal;font-size:60px;font-family:'Averta Std';-inkscape-font-specification:'Averta Std'"/></flowRegion><flowPara id="flowPara4142"/></flowRoot><flowRoot id="flowRoot4144" transform="translate(-209.13822,-217.065)" xml:space="preserve" style="font-style:normal;font-weight:400;font-size:13.75px;line-height:125%;font-family:sans-serif;letter-spacing:0;word-spacing:0;fill:#000;fill-opacity:1;stroke:none;stroke-width:1px;stroke-linecap:butt;stroke-linejoin:miter;stroke-opacity:1"><flowRegion id="flowRegion4146"><rect id="rect4148" width="195.714" height="181.429" x="131.429" y="179.505"/></flowRegion><flowPara id="flowPara4150"/></flowRoot><path id="path4214" d="m 145.87737,38.187072 6.27,0 0,-1.08625 -5.07375,0 0,-3.23125 3.91875,0 0,-1.08625 -3.91875,0 0,-3.2725 4.785,0 0,-1.08625 -5.98125,0 z" style="font-style:normal;font-variant:normal;font-weight:400;font-stretch:normal;font-size:medium;line-height:125%;font-family:'Averta Std';-inkscape-font-specification:'Averta Std';letter-spacing:0;word-spacing:0;fill:#405c4d;fill-opacity:1;stroke:none;stroke-width:1px;stroke-linecap:butt;stroke-linejoin:miter;stroke-opacity:1"/><path id="path4212" d="m 128.19421,38.187072 1.19625,0 0,-7.68625 0.0275,0 5.45875,7.68625 1.22375,0 0,-9.7625 -1.19625,0 0,7.76875 -0.0138,0 -5.51375,-7.76875 -1.1825,0 0,9.7625 z" style="font-style:normal;font-variant:normal;font-weight:400;font-stretch:normal;font-size:medium;line-height:125%;font-family:'Averta Std';-inkscape-font-specification:'Averta Std';letter-spacing:0;word-spacing:0;fill:#405c4d;fill-opacity:1;stroke:none;stroke-width:1px;stroke-linecap:butt;stroke-linejoin:miter;stroke-opacity:1"/><g style="fill:#405c4d;fill-opacity:1" id="g4220" transform="translate(25.530706,-1.395848)"><path style="font-style:normal;font-variant:normal;font-weight:400;font-stretch:normal;font-size:medium;line-height:125%;font-family:'Averta Std';-inkscape-font-specification:'Averta Std';letter-spacing:0;word-spacing:0;fill:#405c4d;fill-opacity:1;stroke:none;stroke-width:1px;stroke-linecap:butt;stroke-linejoin:miter;stroke-opacity:1" id="path4210" d="m 85.91535,39.58292 1.25125,0 0.86625,-2.37875 4.200131,-0.396548 1.038619,2.775298 1.25125,0 -3.7125,-9.7625 -1.19625,0 z"/><path style="font-style:normal;font-variant:normal;font-weight:400;font-stretch:normal;font-size:medium;line-height:125%;font-family:'Averta Std';-inkscape-font-specification:'Averta Std';letter-spacing:0;word-spacing:0;fill:#fff;fill-opacity:1;stroke:none;stroke-width:1px;stroke-linecap:butt;stroke-linejoin:miter;stroke-opacity:1" id="path4208" d="m 87.934195,37.451703 2.257405,-6.187533 0.0275,0 2.16818,5.94071 z"/></g><path id="path4206" d="m 97.984151,38.187072 6.022509,0 0,-1.08625 -4.826259,0 0,-8.67625 -1.19625,0 z" style="font-style:normal;font-variant:normal;font-weight:400;font-stretch:normal;font-size:medium;line-height:125%;font-family:'Averta Std';-inkscape-font-specification:'Averta Std';letter-spacing:0;word-spacing:0;fill:#405c4d;fill-opacity:1;stroke:none;stroke-width:1px;stroke-linecap:butt;stroke-linejoin:miter;stroke-opacity:1"/><path id="path4204" d="m 83.422241,38.187072 1.19625,0 0,-4.35875 3.34125,-5.40375 -1.4025,0 -2.51625,4.19375 -0.0275,0 -2.53,-4.19375 -1.375,0 3.31375,5.40375 z" style="font-style:normal;font-variant:normal;font-weight:400;font-stretch:normal;font-size:medium;line-height:125%;font-family:'Averta Std';-inkscape-font-specification:'Averta Std';letter-spacing:0;word-spacing:0;fill:#405c4d;fill-opacity:1;stroke:none;stroke-width:1px;stroke-linecap:butt;stroke-linejoin:miter;stroke-opacity:1"/><path id="path4202" d="m 64.006581,38.187072 1.19625,0 0,-7.68625 0.0275,0 5.45875,7.68625 1.22375,0 0,-9.7625 -1.19625,0 0,7.76875 -0.0137,0 -5.51375,-7.76875 -1.1825,0 0,9.7625 z" style="font-style:normal;font-variant:normal;font-weight:400;font-stretch:normal;font-size:medium;line-height:125%;font-family:'Averta Std';-inkscape-font-specification:'Averta Std';letter-spacing:0;word-spacing:0;fill:#405c4d;fill-opacity:1;stroke:none;stroke-width:1px;stroke-linecap:butt;stroke-linejoin:miter;stroke-opacity:1"/><path id="path4200" d="m 47.959681,38.187072 1.19625,0 0,-7.68625 0.0275,0 5.45875,7.68625 1.22375,0 0,-9.7625 -1.19625,0 0,7.76875 -0.0137,0 -5.51375,-7.76875 -1.1825,0 0,9.7625 z" style="font-style:normal;font-variant:normal;font-weight:400;font-stretch:normal;font-size:medium;line-height:125%;font-family:'Averta Std';-inkscape-font-specification:'Averta Std';letter-spacing:0;word-spacing:0;fill:#405c4d;fill-opacity:1;stroke:none;stroke-width:1px;stroke-linecap:butt;stroke-linejoin:miter;stroke-opacity:1"/><path id="path4198" d="m 33.54902,38.187072 6.27,0 0,-1.08625 -5.07375,0 0,-3.23125 3.91875,0 0,-1.08625 -3.91875,0 0,-3.2725 4.785,0 0,-1.08625 -5.98125,0 z" style="font-style:normal;font-variant:normal;font-weight:400;font-stretch:normal;font-size:medium;line-height:125%;font-family:'Averta Std';-inkscape-font-specification:'Averta Std';letter-spacing:0;word-spacing:0;fill:#405c4d;fill-opacity:1;stroke:none;stroke-width:1px;stroke-linecap:butt;stroke-linejoin:miter;stroke-opacity:1"/><g style="fill:#405c4d;fill-opacity:1" id="g4216" transform="translate(-16.369485,-1.395848)"><g id="g4224"><path id="path4196" d="m 33.50035,39.58292 1.19625,0 0,-3.72625 2.0075,0 c 2.035,0 3.4375,-0.94875 3.4375,-3.01125 0,-1.7325 -0.94875,-3.025 -3.23125,-3.025 l -3.41,0 z" style="font-style:normal;font-variant:normal;font-weight:400;font-stretch:normal;font-size:medium;line-height:125%;font-family:'Averta Std';-inkscape-font-specification:'Averta Std';letter-spacing:0;word-spacing:0;fill:#405c4d;fill-opacity:1;stroke:none;stroke-width:1px;stroke-linecap:butt;stroke-linejoin:miter;stroke-opacity:1"/><path id="path4197" d="m 34.6966,34.77042 0,-3.86375 2.09,0 c 1.30625,0 2.1175,0.66 2.1175,1.91125 0,1.1275 -0.6875,1.9525 -2.31,1.9525 z" style="font-style:normal;font-variant:normal;font-weight:400;font-stretch:normal;font-size:medium;line-height:125%;font-family:'Averta Std';-inkscape-font-specification:'Averta Std';letter-spacing:0;word-spacing:0;fill:#fff;fill-opacity:1;stroke:none;stroke-width:1px;stroke-linecap:butt;stroke-linejoin:miter;stroke-opacity:1"/></g></g></svg>