<svg xmlns="http://www.w3.org/2000/svg" xmlns:svg="http://www.w3.org/2000/svg" id="svg2" width="258.684" height="149.047" version="1.1" viewBox="0 0 242.516 139.732"><metadata id="metadata7"/><g id="layer1" transform="translate(-277.94004,-356.73694)"><g id="g1483" transform="translate(0,-7.1525576e-6)"><path id="path38311" d="M 298.90601,394.38657 H 499.36107" style="fill:none;fill-rule:evenodd;stroke:#000;stroke-width:.74701041;stroke-linecap:butt;stroke-linejoin:miter;stroke-miterlimit:4;stroke-dasharray:none;stroke-opacity:1"/><path id="path38311-1" d="m 498.12628,394.3118 h 22.33007" style="fill:none;fill-rule:evenodd;stroke:#000;stroke-width:.74701041;stroke-linecap:butt;stroke-linejoin:miter;stroke-miterlimit:4;stroke-dasharray:.74701041,2.24103125;stroke-dashoffset:0;stroke-opacity:1"/><path id="path38311-1-9" d="m 277.94004,394.14607 h 22.33007" style="fill:none;fill-rule:evenodd;stroke:#000;stroke-width:.74701041;stroke-linecap:butt;stroke-linejoin:miter;stroke-miterlimit:4;stroke-dasharray:.74701044,2.24103135;stroke-dashoffset:0;stroke-opacity:1"/></g><g id="g1488" transform="translate(0,-0.62499763)"><path id="path38311-8" d="M 298.90601,415.8856 H 499.36107" style="fill:none;fill-rule:evenodd;stroke:#000;stroke-width:.74701041;stroke-linecap:butt;stroke-linejoin:miter;stroke-miterlimit:4;stroke-dasharray:none;stroke-opacity:1"/><path id="path38311-8-2" d="m 498.12628,415.81083 h 22.33007" style="fill:none;fill-rule:evenodd;stroke:#000;stroke-width:.74701041;stroke-linecap:butt;stroke-linejoin:miter;stroke-miterlimit:4;stroke-dasharray:.74701041,2.24103125;stroke-dashoffset:0;stroke-opacity:1"/><path id="path38311-8-2-2" d="m 277.94004,415.6451 h 22.33007" style="fill:none;fill-rule:evenodd;stroke:#000;stroke-width:.74701041;stroke-linecap:butt;stroke-linejoin:miter;stroke-miterlimit:4;stroke-dasharray:.74701044,2.24103135;stroke-dashoffset:0;stroke-opacity:1"/></g><g id="g1493" transform="translate(0.33145632,-3.1249928)"><path id="path38311-83" d="M 298.90601,439.25963 H 499.36107" style="fill:none;fill-rule:evenodd;stroke:#000;stroke-width:.74701041;stroke-linecap:butt;stroke-linejoin:miter;stroke-miterlimit:4;stroke-dasharray:none;stroke-opacity:1"/><path id="path38311-83-8" d="m 498.12628,439.18486 h 22.33007" style="fill:none;fill-rule:evenodd;stroke:#000;stroke-width:.74701041;stroke-linecap:butt;stroke-linejoin:miter;stroke-miterlimit:4;stroke-dasharray:.74701041,2.24103125;stroke-dashoffset:0;stroke-opacity:1"/><path id="path38311-83-8-8" d="m 277.94004,439.01913 h 22.33007" style="fill:none;fill-rule:evenodd;stroke:#000;stroke-width:.74701041;stroke-linecap:butt;stroke-linejoin:miter;stroke-miterlimit:4;stroke-dasharray:.74701044,2.24103135;stroke-dashoffset:0;stroke-opacity:1"/></g><g id="g1503"><path id="path38311-5" d="M 298.90601,457.00867 H 499.36107" style="fill:none;fill-rule:evenodd;stroke:#000;stroke-width:.74701041;stroke-linecap:butt;stroke-linejoin:miter;stroke-miterlimit:4;stroke-dasharray:none;stroke-opacity:1"/><path id="path38311-5-8" d="m 498.12628,456.9339 h 22.33007" style="fill:none;fill-rule:evenodd;stroke:#000;stroke-width:.74701041;stroke-linecap:butt;stroke-linejoin:miter;stroke-miterlimit:4;stroke-dasharray:.74701041,2.24103125;stroke-dashoffset:0;stroke-opacity:1"/><path id="path38311-5-8-8" d="m 277.94004,456.76817 h 22.33007" style="fill:none;fill-rule:evenodd;stroke:#000;stroke-width:.74701041;stroke-linecap:butt;stroke-linejoin:miter;stroke-miterlimit:4;stroke-dasharray:.74701044,2.24103135;stroke-dashoffset:0;stroke-opacity:1"/></g><rect style="opacity:1;fill:#e6e6e6;fill-opacity:.39077669;stroke:#000;stroke-width:.4797076;stroke-linejoin:round;stroke-miterlimit:4;stroke-dasharray:.47970762,.95941526000000021;stroke-dashoffset:0;stroke-opacity:.23543689" id="rect38346-723-9-8" width="76.242" height="90.593" x="310.132" y="379.805" ry="0"/><rect style="opacity:1;fill:#fff;fill-opacity:1;stroke:#000;stroke-width:.31863454;stroke-linejoin:round;stroke-miterlimit:4;stroke-dasharray:none;stroke-dashoffset:0;stroke-opacity:1" id="rect38346-723" width="21.102" height="16.644" x="336.647" y="387.073" ry="0"/><g id="g1348" transform="translate(277.19253,265.8)"><g id="g1346" stroke-miterlimit="10.433" font-size-adjust="none" font-stretch="normal" font-style="normal" font-variant="normal" font-weight="normal" letter-spacing="normal" transform="matrix(0.2129242,0,0,-0.2129242,-37.261736,194.01304)" word-spacing="normal" xml:space="preserve" style="font-style:normal;font-variant:normal;font-weight:400;font-stretch:normal;letter-spacing:normal;word-spacing:normal;text-anchor:start;fill:none;fill-opacity:1;fill-rule:evenodd;stroke:#000;stroke-linecap:butt;stroke-linejoin:miter;stroke-miterlimit:10.43299961;stroke-dasharray:none;stroke-dashoffset:0;stroke-opacity:1"><path id="path1338" d="m 464.44,411.93 -0.19,-0.3 -0.18,-0.29 -0.19,-0.28 -0.19,-0.26 -0.18,-0.25 -0.19,-0.23 -0.19,-0.22 -0.18,-0.21 -0.19,-0.2 -0.19,-0.18 -0.18,-0.17 -0.19,-0.16 -0.19,-0.15 -0.18,-0.14 -0.19,-0.13 -0.19,-0.12 -0.19,-0.11 -0.19,-0.1 -0.19,-0.09 -0.19,-0.09 -0.19,-0.07 -0.2,-0.07 -0.19,-0.07 -0.2,-0.05 -0.19,-0.05 -0.2,-0.04 -0.2,-0.04 -0.19,-0.03 -0.41,-0.05 -0.4,-0.03 c -0.61,-0.05 -1.05,-0.05 -1.05,-1 0,-0.3 0.25,-0.55 0.64,-0.55 1.34,0 2.89,0.16 4.28,0.16 1.64,0 3.39,-0.16 4.99,-0.16 0.29,0 0.95,0 0.95,0.95 0,0.55 -0.45,0.6 -0.8,0.6 -1.15,0.09 -2.34,0.5 -2.34,1.73 0,0.61 0.3,1.16 0.69,1.84 l 3.79,6.39 h 12.5 l -0.14,1.54 h -11.42 l 9.83,16.45 1.59,-16.45 0.14,-1.54 c 0.11,-1.04 0.8,-7.82 0.8,-8.32 0,-1.5 -2.59,-1.64 -3.58,-1.64 -0.7,0 -1.2,0 -1.2,-1 0,-0.55 0.59,-0.55 0.7,-0.55 2.03,0 4.19,0.16 6.22,0.16 1.25,0 4.39,-0.16 5.64,-0.16 0.3,0 0.89,0 0.89,1 0,0.55 -0.5,0.55 -1.14,0.55 -3.09,0 -3.09,0.34 -3.25,1.79 l -3.03,31.13 c -0.11,1 -0.11,1.2 -0.95,1.2 -0.8,0 -0.99,-0.34 -1.3,-0.84 z" style="fill:#000;stroke-width:0"/><path id="path1340" d="m 509.32,394.25 v 0.02 0.03 0.01 l -0.01,0.02 v 0.01 0.02 l -0.01,0.01 -0.01,0.02 v 0.02 l -0.01,0.02 -0.02,0.02 -0.01,0.03 -0.02,0.02 -0.02,0.03 -0.02,0.03 -0.02,0.03 -0.03,0.03 -0.03,0.04 -0.01,0.02 -0.02,0.02 -0.02,0.02 -0.01,0.02 -0.02,0.02 -0.02,0.03 -0.02,0.02 -0.03,0.02 -0.02,0.03 -0.02,0.02 -0.03,0.03 -0.02,0.03 -0.03,0.03 -0.03,0.03 -0.03,0.03 -0.02,0.03 -0.04,0.03 -0.03,0.03 -0.03,0.04 -0.03,0.03 -0.04,0.04 -0.04,0.03 -0.03,0.04 -0.04,0.04 c -6.22,6.28 -7.82,15.69 -7.82,23.31 0,8.67 1.89,17.35 8.02,23.56 0.64,0.61 0.64,0.71 0.64,0.86 0,0.35 -0.19,0.49 -0.48,0.49 -0.5,0 -4.99,-3.38 -7.93,-9.7 -2.54,-5.49 -3.14,-11.02 -3.14,-15.21 0,-3.89 0.55,-9.9 3.28,-15.54 2.99,-6.13 7.29,-9.36 7.79,-9.36 0.29,0 0.48,0.14 0.48,0.5 z" style="fill:#000;stroke-width:0"/><path id="path1342" d="m 535.92,417.96 -0.01,0.37 -0.01,0.35 -0.01,0.35 -0.02,0.34 -0.07,0.65 -0.09,0.63 -0.11,0.59 -0.13,0.57 -0.16,0.54 -0.17,0.51 -0.2,0.49 -0.21,0.45 -0.23,0.44 -0.24,0.4 -0.26,0.38 -0.28,0.36 -0.28,0.33 -0.3,0.31 -0.31,0.29 -0.32,0.26 -0.33,0.24 -0.33,0.22 -0.35,0.2 -0.34,0.18 -0.36,0.16 -0.35,0.14 -0.36,0.12 -0.36,0.11 -0.36,0.09 -0.36,0.06 -0.36,0.06 -0.36,0.04 -0.35,0.02 h -0.35 l -0.05,-1.09 c 4.94,0 4.94,-6.53 4.94,-10.41 0,-1.84 0,-4.73 0.09,-5.57 v 0 c -4.37,-3.85 -8.22,-4.39 -10.2,-4.39 -3,0 -4.48,2.25 -4.48,5.43 0,2.44 1.29,7.82 2.89,10.36 2.32,3.64 5.03,4.58 6.76,4.58 l 0.05,1.09 c -6.81,0 -13.39,-7.12 -13.39,-14.14 0,-4.64 2.98,-8.42 8.06,-8.42 3.14,0 6.74,1.14 10.52,4.19 0.65,-2.64 2.29,-4.19 4.53,-4.19 2.64,0 4.19,2.74 4.19,3.53 0,0.36 -0.3,0.5 -0.6,0.5 -0.36,0 -0.5,-0.14 -0.65,-0.5 -0.9,-2.43 -2.69,-2.43 -2.78,-2.43 -1.55,0 -1.55,3.89 -1.55,5.07 0,1.05 0,1.16 0.5,1.75 4.68,5.88 5.73,11.66 5.73,11.71 0,0.11 -0.06,0.5 -0.61,0.5 -0.5,0 -0.5,-0.14 -0.75,-1.05 -0.89,-3.14 -2.53,-6.92 -4.87,-9.86 z" style="fill:#000;stroke-width:0"/><path id="path1344" d="m 558.7,418.65 v 0.37 0.39 l -0.01,0.39 -0.02,0.41 -0.04,0.84 -0.06,0.88 -0.08,0.92 -0.1,0.95 -0.14,0.97 -0.16,1.01 -0.2,1.02 -0.23,1.03 -0.27,1.05 -0.3,1.06 -0.35,1.07 -0.39,1.07 -0.22,0.53 -0.22,0.53 -0.24,0.53 -0.25,0.53 c -2.98,6.12 -7.26,9.36 -7.76,9.36 -0.3,0 -0.5,-0.19 -0.5,-0.49 0,-0.15 0,-0.25 0.93,-1.15 4.89,-4.92 7.74,-12.85 7.74,-23.27 0,-8.51 -1.85,-17.28 -8.03,-23.56 -0.64,-0.59 -0.64,-0.7 -0.64,-0.84 0,-0.3 0.2,-0.5 0.5,-0.5 0.5,0 4.96,3.39 7.92,9.71 2.53,5.47 3.12,11 3.12,15.19 z" style="fill:#000;stroke-width:0"/></g></g><g id="g1434" transform="translate(373.73853,265.8)"><g id="g1432" stroke-miterlimit="10.433" font-size-adjust="none" font-stretch="normal" font-style="normal" font-variant="normal" font-weight="normal" letter-spacing="normal" transform="matrix(0.2129242,0,0,-0.2129242,-37.261736,194.01304)" word-spacing="normal" xml:space="preserve" style="font-style:normal;font-variant:normal;font-weight:400;font-stretch:normal;letter-spacing:normal;word-spacing:normal;text-anchor:start;fill:none;fill-opacity:1;fill-rule:evenodd;stroke:#000;stroke-linecap:butt;stroke-linejoin:miter;stroke-miterlimit:10.43299961;stroke-dasharray:none;stroke-dashoffset:0;stroke-opacity:1"><path id="path1424" d="m 463.49,410.09 -0.05,-0.18 -0.04,-0.17 -0.05,-0.16 -0.04,-0.15 -0.04,-0.15 -0.05,-0.13 -0.05,-0.13 -0.05,-0.12 -0.05,-0.11 -0.06,-0.11 -0.07,-0.1 -0.07,-0.09 -0.07,-0.09 -0.09,-0.07 -0.09,-0.08 -0.11,-0.06 -0.11,-0.07 -0.13,-0.05 -0.13,-0.05 -0.15,-0.05 -0.16,-0.04 -0.09,-0.02 -0.09,-0.01 -0.09,-0.02 -0.1,-0.02 -0.1,-0.01 -0.1,-0.01 -0.11,-0.01 -0.12,-0.02 -0.11,-0.01 -0.13,-0.01 h -0.12 l -0.13,-0.01 -0.14,-0.01 h -0.14 l -0.14,-0.01 h -0.15 l -0.16,-0.01 h -0.16 -0.16 -0.17 -0.18 -0.18 c -0.85,0 -1.35,0 -1.35,-1 0,-0.55 0.46,-0.55 1.35,-0.55 h 17.78 c 7.87,0 13.75,5.87 13.75,10.76 0,3.58 -2.89,6.47 -7.72,7.02 5.19,0.95 10.42,4.64 10.42,9.38 0,3.68 -3.3,6.87 -9.28,6.87 l -0.69,-1.55 c 4.38,0 5.42,-2.93 5.42,-5.12 0,-4.39 -4.28,-9.13 -10.35,-9.13 h -7.27 l -0.3,-1.09 h 9.41 c 4.78,0 5.73,-3.69 5.73,-5.83 0,-4.94 -4.43,-9.76 -10.31,-9.76 h -6.78 c -0.69,0 -0.8,0 -1.09,0.04 -0.5,0.05 -0.64,0.1 -0.64,0.5 0,0.14 0,0.25 0.25,1.14 l 3.43,13.91 0.3,1.09 3.08,12.36 c 0.45,1.74 0.54,1.89 2.7,1.89 h 6.42 l 0.69,1.55 h -16.73 c -0.94,0 -1.44,0 -1.44,-1 0,-0.55 0.44,-0.55 1.39,-0.55 0.09,0 1.05,0 1.89,-0.09 0.89,-0.11 1.34,-0.16 1.34,-0.8 0,-0.2 -0.04,-0.36 -0.2,-0.95 z" style="fill:#000;stroke-width:0"/><path id="path1426" d="m 512.32,394.25 v 0.02 0.03 0.01 l -0.01,0.02 v 0.01 0.02 l -0.01,0.01 -0.01,0.02 v 0.02 l -0.01,0.02 -0.02,0.02 -0.01,0.03 -0.02,0.02 -0.02,0.03 -0.02,0.03 -0.02,0.03 -0.03,0.03 -0.03,0.04 -0.01,0.02 -0.02,0.02 -0.02,0.02 -0.01,0.02 -0.02,0.02 -0.02,0.03 -0.02,0.02 -0.03,0.02 -0.02,0.03 -0.02,0.02 -0.03,0.03 -0.02,0.03 -0.03,0.03 -0.03,0.03 -0.03,0.03 -0.02,0.03 -0.04,0.03 -0.03,0.03 -0.03,0.04 -0.03,0.03 -0.04,0.04 -0.04,0.03 -0.03,0.04 -0.04,0.04 c -6.22,6.28 -7.82,15.69 -7.82,23.31 0,8.67 1.89,17.35 8.02,23.56 0.64,0.61 0.64,0.71 0.64,0.86 0,0.35 -0.19,0.49 -0.48,0.49 -0.5,0 -4.99,-3.38 -7.93,-9.7 -2.54,-5.49 -3.14,-11.02 -3.14,-15.21 0,-3.89 0.55,-9.9 3.28,-15.54 2.99,-6.13 7.29,-9.36 7.79,-9.36 0.29,0 0.48,0.14 0.48,0.5 z" style="fill:#000;stroke-width:0"/><path id="path1428" d="m 543.79,434.54 v 0.35 l -0.03,0.35 -0.04,0.33 -0.05,0.34 -0.07,0.33 -0.09,0.32 -0.09,0.32 -0.12,0.31 -0.12,0.3 -0.14,0.29 -0.16,0.29 -0.16,0.27 -0.18,0.27 -0.2,0.26 -0.2,0.25 -0.22,0.24 -0.23,0.22 -0.24,0.22 -0.25,0.2 -0.26,0.2 -0.27,0.17 -0.29,0.17 -0.29,0.15 -0.3,0.14 -0.32,0.12 -0.32,0.11 -0.33,0.09 -0.34,0.08 -0.35,0.06 -0.36,0.05 -0.37,0.02 -0.37,0.01 c -2.89,0 -4.28,-0.8 -6.03,-2.09 -2.74,-1.99 -5.49,-6.83 -6.43,-10.61 l -7.92,-31.64 c -0.06,-0.19 0.19,-0.5 0.6,-0.5 0.39,0 0.54,0.11 0.59,0.25 l 3.48,13.75 c 0.96,-2.99 3.15,-4.83 6.78,-4.83 l -0.15,1.09 c -3.78,0 -5.67,2.89 -5.67,6.44 0,0.48 0,1.23 0.25,2.19 l 3.19,12.61 c 1.09,4.28 4.68,12.2 10.65,12.2 2.89,0 4.64,-1.55 4.64,-4.53 v 0 c 0,-3.5 -1.89,-7.08 -4.48,-8.63 -1.35,0.5 -2.35,0.6 -3.85,0.6 -1.04,0 -3.83,0.04 -3.83,-1.6 -0.04,-1.39 2.54,-1.23 3.44,-1.23 l 0.14,1.09 c -0.68,0 -1.68,-0.06 -2.18,0.19 0.1,0.5 1.89,0.41 2.43,0.41 1.05,0 1.5,0 2.14,-0.25 v 0 c -0.64,-0.25 -1.18,-0.35 -2.39,-0.35 l -0.14,-1.09 c 1.85,0 2.6,0.05 4.08,0.64 1.89,-1.8 2.14,-3.34 2.2,-5.62 0.1,-2.9 -1.1,-6.63 -2.5,-8.58 -1.93,-2.69 -5.28,-4.49 -8.12,-4.49 l 0.15,-1.09 c 3.65,0 7.38,1.75 9.62,3.94 2.38,2.29 4,5.48 4,9.17 0,3.58 -1.85,6.17 -3.65,7.42 2.9,1.64 5.72,4.73 5.72,8.31 z" style="fill:#000;stroke-width:0"/><path id="path1430" d="m 560.38,418.65 v 0.37 0.39 l -0.01,0.39 -0.02,0.41 -0.04,0.84 -0.06,0.88 -0.08,0.92 -0.1,0.95 -0.14,0.97 -0.16,1.01 -0.2,1.02 -0.23,1.03 -0.27,1.05 -0.3,1.06 -0.35,1.07 -0.39,1.07 -0.22,0.53 -0.22,0.53 -0.24,0.53 -0.25,0.53 c -2.98,6.12 -7.26,9.36 -7.76,9.36 -0.3,0 -0.5,-0.19 -0.5,-0.49 0,-0.15 0,-0.25 0.93,-1.15 4.89,-4.92 7.74,-12.85 7.74,-23.27 0,-8.51 -1.85,-17.28 -8.03,-23.56 -0.64,-0.59 -0.64,-0.7 -0.64,-0.84 0,-0.3 0.2,-0.5 0.5,-0.5 0.5,0 4.96,3.39 7.92,9.71 2.53,5.47 3.12,11 3.12,15.19 z" style="fill:#000;stroke-width:0"/></g></g><rect style="opacity:1;fill:#fff;fill-opacity:1;stroke:#000;stroke-width:.31863454;stroke-linejoin:round;stroke-miterlimit:4;stroke-dasharray:none;stroke-dashoffset:0;stroke-opacity:1" id="rect38346-723-8" width="21.102" height="16.644" x="336.647" y="408.037" ry="0"/><rect style="opacity:1;fill:#fff;fill-opacity:1;stroke:#000;stroke-width:.31863454;stroke-linejoin:round;stroke-miterlimit:4;stroke-dasharray:none;stroke-dashoffset:0;stroke-opacity:1" id="rect38346-723-6" width="21.102" height="16.644" x="336.647" y="429.001" ry="0"/><rect style="opacity:1;fill:#fff;fill-opacity:1;stroke:#000;stroke-width:.31863454;stroke-linejoin:round;stroke-miterlimit:4;stroke-dasharray:none;stroke-dashoffset:0;stroke-opacity:1" id="rect38346-723-83" width="21.102" height="16.644" x="336.647" y="449.966" ry="0"/><rect style="opacity:1;fill:#e6e6e6;fill-opacity:.39077669;stroke:#000;stroke-width:.47970757;stroke-linejoin:round;stroke-miterlimit:4;stroke-dasharray:.47970761,.95941523;stroke-dashoffset:0;stroke-opacity:.23543689" id="rect38346-723-9-8-3" width="76.242" height="90.593" x="408.335" y="379.805" ry="0"/><rect style="opacity:1;fill:#fff;fill-opacity:1;stroke:#000;stroke-width:.38829526;stroke-linejoin:round;stroke-miterlimit:4;stroke-dasharray:none;stroke-dashoffset:0;stroke-opacity:1" id="rect38346-723-3" width="18.587" height="28.061" x="412.854" y="390.425" ry="0"/><rect style="opacity:1;fill:#fff;fill-opacity:1;stroke:#000;stroke-width:.29994684;stroke-linejoin:round;stroke-miterlimit:4;stroke-dasharray:none;stroke-dashoffset:0;stroke-opacity:1" id="rect38346-723-3-0" width="18.675" height="16.665" x="437.052" y="407.021" ry="0"/><rect style="opacity:1;fill:#fff;fill-opacity:1;stroke:#000;stroke-width:.29994684;stroke-linejoin:round;stroke-miterlimit:4;stroke-dasharray:none;stroke-dashoffset:0;stroke-opacity:1" id="rect38346-723-8-8-4" width="18.675" height="16.665" x="437.052" y="447.844" ry="0"/><rect style="opacity:1;fill:#fff;fill-opacity:1;stroke:#000;stroke-width:.29994684;stroke-linejoin:round;stroke-miterlimit:4;stroke-dasharray:none;stroke-dashoffset:0;stroke-opacity:1" id="rect38346-723-3-7" width="18.675" height="16.665" x="462.75" y="385.459" ry="0"/><rect style="opacity:1;fill:#fff;fill-opacity:1;stroke:#000;stroke-width:.29994684;stroke-linejoin:round;stroke-miterlimit:4;stroke-dasharray:none;stroke-dashoffset:0;stroke-opacity:1" id="rect38346-723-8-8-6" width="18.675" height="16.665" x="462.75" y="427.922" ry="0"/><path style="fill:none;fill-rule:evenodd;stroke:#000;stroke-width:.46875001;stroke-linecap:butt;stroke-linejoin:miter;stroke-opacity:1;stroke-miterlimit:4;stroke-dasharray:none" id="path1755" d="m 445.75255,423.34344 v 24.60938"/><path style="fill:none;fill-rule:evenodd;stroke:#000;stroke-width:.46875001;stroke-linecap:butt;stroke-linejoin:miter;stroke-opacity:1;stroke-miterlimit:4;stroke-dasharray:none" id="path1759" d="m 472.23692,401.78094 v 26.48438"/></g></svg>